<svg width="479" height="69" viewBox="0 0 479 69" fill="none" xmlns="http://www.w3.org/2000/svg">
<path d="M23.0521 69C18.5208 69 14.5938 68.1441 11.2708 66.4323C7.94792 64.6869 5.36343 62.3542 3.51736 59.434C1.70486 56.5139 0.798611 53.3084 0.798611 49.8177V19.2066C0.798611 15.6823 1.70486 12.4768 3.51736 9.59028C5.36343 6.67014 7.94792 4.35416 11.2708 2.64236C14.5938 0.896989 18.5208 0.0243033 23.0521 0.0243033H38.559C43.0903 0.0243033 47.0174 0.896989 50.3403 2.64236C53.6968 4.35416 56.2813 6.67014 58.0938 9.59028C59.9063 12.4768 60.8125 15.6823 60.8125 19.2066V49.8177C60.8125 53.3084 59.9063 56.5139 58.0938 59.434C56.2813 62.3542 53.6968 64.6869 50.3403 66.4323C47.0174 68.1441 43.0903 69 38.559 69H23.0521ZM30.4028 46.1927H35.7396V34.5625L48.5278 4.55555H42.2344L33.0712 27.1615L24.1094 4.55555H17.816L30.4028 34.4618V46.1927ZM82.6632 69C78.1319 69 74.2049 68.1441 70.8819 66.4323C67.559 64.6869 64.9745 62.3542 63.1285 59.434C61.316 56.5139 60.4097 53.3084 60.4097 49.8177V19.2066C60.4097 15.6823 61.316 12.4768 63.1285 9.59028C64.9745 6.67014 67.559 4.35416 70.8819 2.64236C74.2049 0.896989 78.1319 0.0243033 82.6632 0.0243033H98.1701C102.701 0.0243033 106.628 0.896989 109.951 2.64236C113.308 4.35416 115.892 6.67014 117.705 9.59028C119.517 12.4768 120.424 15.6823 120.424 19.2066V49.8177C120.424 53.3084 119.517 56.5139 117.705 59.434C115.892 62.3542 113.308 64.6869 109.951 66.4323C106.628 68.1441 102.701 69 98.1701 69H82.6632ZM85.9861 46.1927H99.4792L104.665 45.5885L107.837 42.4167L108.542 38.0868V12.7118L107.837 8.48264L104.665 5.26041L99.4792 4.55555H85.9861L80.8507 5.26041L77.6285 8.48264L77.0243 12.7118V38.0868L77.6285 42.4167L80.9514 45.5885L85.9861 46.1927ZM86.2882 40.8559L83.0156 40.3524L82.2604 37.3316V13.2153L82.7639 10.4462L86.2882 9.89236H99.1771L102.701 10.4462L103.205 13.4167V37.533L102.5 40.3524L99.1771 40.8559H86.2882ZM142.274 69C137.743 69 133.816 68.1441 130.493 66.4323C127.17 64.6869 124.586 62.3542 122.74 59.434C120.927 56.5139 120.021 53.3084 120.021 49.8177V19.2066C120.021 15.6823 120.927 12.4768 122.74 9.59028C124.586 6.67014 127.17 4.35416 130.493 2.64236C133.816 0.896989 137.743 0.0243033 142.274 0.0243033H157.781C162.313 0.0243033 166.24 0.896989 169.563 2.64236C172.919 4.35416 175.503 6.67014 177.316 9.59028C179.128 12.4768 180.035 15.6823 180.035 19.2066V49.8177C180.035 53.3084 179.128 56.5139 177.316 59.434C175.503 62.3542 172.919 64.6869 169.563 66.4323C166.24 68.1441 162.313 69 157.781 69H142.274ZM145.295 46.1927H158.788L163.924 45.5885L167.146 42.4167L167.851 38.0868V4.55555H162.514V37.533L161.759 40.3524L158.486 40.8559H145.597L142.274 40.3524L141.569 37.3316V4.55555H136.333V38.0868L136.938 42.4167L140.21 45.5885L145.295 46.1927ZM201.885 69C197.354 69 193.427 68.1441 190.104 66.4323C186.781 64.6869 184.197 62.3542 182.351 59.434C180.538 56.5139 179.632 53.3084 179.632 49.8177V19.2066C179.632 15.6823 180.538 12.4768 182.351 9.59028C184.197 6.67014 186.781 4.35416 190.104 2.64236C193.427 0.896989 197.354 0.0243033 201.885 0.0243033H217.392C221.924 0.0243033 225.851 0.896989 229.174 2.64236C232.53 4.35416 235.115 6.67014 236.927 9.59028C238.74 12.4768 239.646 15.6823 239.646 19.2066V49.8177C239.646 53.3084 238.74 56.5139 236.927 59.434C235.115 62.3542 232.53 64.6869 229.174 66.4323C225.851 68.1441 221.924 69 217.392 69H201.885ZM204.705 46.1927H217.795L222.931 45.5885L226.153 42.4167L226.858 38.0868V30.434L226.153 26.1042L222.931 22.9323L217.694 22.3785H206.417L203.345 21.7743L202.641 18.8038V13.5174L203.345 10.5469L206.668 9.89236H219.457L224.189 10.849L225.398 5.36111L219.557 4.55555H206.316L201.281 5.26041L198.009 8.48264L197.354 12.7118V19.6094L198.009 23.8385L201.281 27.0104L206.316 27.6649H217.694L220.766 28.1684L221.47 30.9375V37.533L220.766 40.3524L217.493 40.8559H205.007L200.073 40.0503L198.814 45.4878L204.705 46.1927ZM261.497 69C256.965 69 253.038 68.1441 249.715 66.4323C246.392 64.6869 243.808 62.3542 241.962 59.434C240.149 56.5139 239.243 53.3084 239.243 49.8177V19.2066C239.243 15.6823 240.149 12.4768 241.962 9.59028C243.808 6.67014 246.392 4.35416 249.715 2.64236C253.038 0.896989 256.965 0.0243033 261.497 0.0243033H277.003C281.535 0.0243033 285.462 0.896989 288.785 2.64236C292.141 4.35416 294.726 6.67014 296.538 9.59028C298.351 12.4768 299.257 15.6823 299.257 19.2066V49.8177C299.257 53.3084 298.351 56.5139 296.538 59.434C294.726 62.3542 292.141 64.6869 288.785 66.4323C285.462 68.1441 281.535 69 277.003 69H261.497ZM269.351 46.1927H274.738V9.89236H286.569V4.55555H257.469V9.89236H269.351V46.1927ZM321.108 69C316.576 69 312.649 68.1441 309.326 66.4323C306.003 64.6869 303.419 62.3542 301.573 59.434C299.76 56.5139 298.854 53.3084 298.854 49.8177V19.2066C298.854 15.6823 299.76 12.4768 301.573 9.59028C303.419 6.67014 306.003 4.35416 309.326 2.64236C312.649 0.896989 316.576 0.0243033 321.108 0.0243033H336.615C341.146 0.0243033 345.073 0.896989 348.396 2.64236C351.752 4.35416 354.337 6.67014 356.149 9.59028C357.962 12.4768 358.868 15.6823 358.868 19.2066V49.8177C358.868 53.3084 357.962 56.5139 356.149 59.434C354.337 62.3542 351.752 64.6869 348.396 66.4323C345.073 68.1441 341.146 69 336.615 69H321.108ZM324.128 46.1927H337.622L342.757 45.5885L345.979 42.4167L346.684 38.0868V4.55555H341.347V37.533L340.592 40.3524L337.319 40.8559H324.431L321.108 40.3524L320.403 37.3316V4.55555H315.167V38.0868L315.771 42.4167L319.043 45.5885L324.128 46.1927ZM380.719 69C376.188 69 372.26 68.1441 368.938 66.4323C365.615 64.6869 363.03 62.3542 361.184 59.434C359.372 56.5139 358.465 53.3084 358.465 49.8177V19.2066C358.465 15.6823 359.372 12.4768 361.184 9.59028C363.03 6.67014 365.615 4.35416 368.938 2.64236C372.26 0.896989 376.188 0.0243033 380.719 0.0243033H396.226C400.757 0.0243033 404.684 0.896989 408.007 2.64236C411.363 4.35416 413.948 6.67014 415.76 9.59028C417.573 12.4768 418.479 15.6823 418.479 19.2066V49.8177C418.479 53.3084 417.573 56.5139 415.76 59.434C413.948 62.3542 411.363 64.6869 408.007 66.4323C404.684 68.1441 400.757 69 396.226 69H380.719ZM375.181 46.1927H397.635L402.821 45.5885L405.993 42.4167L406.698 38.0868V12.7118L405.993 8.48264L402.821 5.26041L397.635 4.55555H375.181V46.1927ZM380.417 40.8559V9.89236H397.333L400.858 10.4462L401.361 13.4167V37.533L400.656 40.3524L397.333 40.8559H380.417ZM440.33 69C435.799 69 431.872 68.1441 428.549 66.4323C425.226 64.6869 422.641 62.3542 420.795 59.434C418.983 56.5139 418.076 53.3084 418.076 49.8177V19.2066C418.076 15.6823 418.983 12.4768 420.795 9.59028C422.641 6.67014 425.226 4.35416 428.549 2.64236C431.872 0.896989 435.799 0.0243033 440.33 0.0243033H455.837C460.368 0.0243033 464.295 0.896989 467.618 2.64236C470.975 4.35416 473.559 6.67014 475.372 9.59028C477.184 12.4768 478.09 15.6823 478.09 19.2066V49.8177C478.09 53.3084 477.184 56.5139 475.372 59.434C473.559 62.3542 470.975 64.6869 467.618 66.4323C464.295 68.1441 460.368 69 455.837 69H440.33ZM447.681 46.1927H453.017V34.5625L465.806 4.55555H459.512L450.349 27.1615L441.387 4.55555H435.094L447.681 34.4618V46.1927Z" fill="#FF7D29"/>
</svg>
